<svg width="260" height="260" viewBox="0 0 260 260" fill="none" xmlns="http://www.w3.org/2000/svg">
  <circle cx="130" cy="130" r="118" fill="#E6F4DC"/>
  <path d="M130 167C130 127 130 93 130 56" stroke="#2F7A42" stroke-width="9" stroke-linecap="round"/>
  <path d="M130 166C112 132 94 111 62 93" stroke="#2F7A42" stroke-width="9" stroke-linecap="round"/>
  <path d="M131 166C150 129 169 105 203 83" stroke="#2F7A42" stroke-width="9" stroke-linecap="round"/>
  <ellipse cx="130" cy="55" rx="24" ry="40" fill="#73BF5A"/>
  <ellipse cx="60" cy="92" rx="31" ry="17" transform="rotate(28 60 92)" fill="#8DD071"/>
  <ellipse cx="203" cy="82" rx="34" ry="18" transform="rotate(-33 203 82)" fill="#5EA84E"/>
  <ellipse cx="104" cy="119" rx="30" ry="16" transform="rotate(34 104 119)" fill="#6DBB59"/>
  <ellipse cx="158" cy="119" rx="30" ry="16" transform="rotate(-34 158 119)" fill="#84CA67"/>
  <path d="M80 166H180L168 226H92L80 166Z" fill="#B87449"/>
  <rect x="74" y="156" width="112" height="22" rx="9" fill="#9B5E3C"/>
</svg>
